<svg width="48" height="48" viewBox="0 0 48 48" fill="none" xmlns="http://www.w3.org/2000/svg">
<g clip-path="url(#clip0_114_1351)">
<path d="M47.4008 42.4486H45.4115V41.2061H45.4373C46.5921 41.1998 47.5253 40.2635 47.5272 39.1087V38.4096C47.5272 38.0788 47.2592 37.8103 46.928 37.8103C46.5971 37.8103 46.3287 38.0788 46.3287 38.4096V39.1087C46.3283 39.603 45.9292 40.0041 45.4353 40.0076H45.4115V38.037C46.5815 37.7581 47.4074 36.7133 47.409 35.5109V32.8475C47.409 31.4133 46.2464 30.2507 44.8123 30.2507C43.3781 30.2507 42.2155 31.4133 42.2155 32.8475V35.5109C42.2175 36.7133 43.0434 37.7581 44.213 38.037V42.4486H42.8881C43.1721 41.8888 43.1897 41.231 42.9357 40.6568C42.6818 40.0825 42.1832 39.6529 41.5777 39.4867V17.9627C41.5777 17.6319 41.3093 17.3635 40.9784 17.3635H28.2445C27.9133 17.3635 27.6452 17.6319 27.6452 17.9627V42.4486H25.5978V9.47341C25.5978 9.14257 25.3294 8.87416 24.9986 8.87416H22.7682V8.38337H23.5836C23.9144 8.38337 24.1828 8.11496 24.1828 7.78413V4.9541C24.1828 4.62327 23.9144 4.35486 23.5836 4.35486H9.43498C9.10376 4.35486 8.83574 4.62327 8.83574 4.9541V7.78413C8.83574 8.11496 9.10376 8.38337 9.43498 8.38337H10.2504V8.87416H8.01997C7.68875 8.87416 7.42073 9.14257 7.42073 9.47341V39.4942C6.82226 39.6674 6.33264 40.0985 6.08452 40.6696C5.83678 41.2412 5.85629 41.8931 6.13836 42.4486H5.38579C5.83249 41.5662 5.6027 40.4917 4.83336 39.8699C4.06441 39.248 2.96501 39.248 2.19606 39.8699C1.42672 40.4917 1.19693 41.5662 1.64402 42.4486H0.599245C0.268412 42.4486 0 42.7171 0 43.0479C0 43.3787 0.268412 43.6471 0.599245 43.6471H47.4008C47.7316 43.6471 48 43.3787 48 43.0479C48 42.7171 47.7316 42.4486 47.4008 42.4486ZM3.51471 42.4046C3.01846 42.4046 2.61584 42.0023 2.61584 41.5057C2.61584 41.0094 3.01846 40.6068 3.51471 40.6068C4.01135 40.6068 4.41358 41.0094 4.41358 41.5057C4.41319 42.0019 4.01096 42.4042 3.51471 42.4046ZM10.0342 7.18489V5.55335H22.9843V7.18489H10.0342ZM21.5697 8.38337V8.87416H11.4489V8.38337H21.5697ZM8.61922 10.0727H11.6654V13.1188H8.61922V10.0727ZM8.61922 14.3173H11.6654V17.3635H8.61922V14.3173ZM8.61922 18.562H11.6654V21.6081H8.61922V18.562ZM8.61922 22.8066H11.6654V25.8528H8.61922V22.8066ZM8.61922 27.0513H11.6654V30.0974H8.61922V27.0513ZM8.61922 31.2959H11.6654V34.3421H8.61922V31.2959ZM8.00905 42.4046C7.5128 42.4046 7.11018 42.0023 7.11018 41.5057C7.11018 41.0094 7.5128 40.6068 8.00905 40.6068C8.50569 40.6068 8.90791 41.0094 8.90791 41.5057C8.90752 42.0019 8.5053 42.4042 8.00905 42.4046ZM10.6327 42.4486H9.88013C10.1602 41.8966 10.1813 41.249 9.93826 40.6798C9.69481 40.1106 9.21183 39.6783 8.61922 39.4996V35.5406H11.6654V39.5843C11.1364 39.8137 10.7255 40.251 10.5301 40.7933C10.3346 41.3356 10.3717 41.9344 10.6327 42.4486ZM12.5034 42.4046C12.0071 42.4046 11.6045 42.0023 11.6045 41.5057C11.6045 41.0094 12.0071 40.6068 12.5034 40.6068C13 40.6068 13.4022 41.0094 13.4022 41.5057C13.4019 42.0019 12.9996 42.4042 12.5034 42.4046ZM15.91 42.4486H14.3745C14.6749 41.8564 14.6764 41.1569 14.3784 40.5635C14.0803 39.9705 13.5181 39.5539 12.8639 39.4415V35.5406H15.91V42.4486ZM15.91 34.3421H12.8639V31.2959H15.91V34.3421ZM15.91 30.0974H12.8639V27.0513H15.91V30.0974ZM15.91 25.8528H12.8639V22.8066H15.91V25.8528ZM15.91 21.6081H12.8639V18.562H15.91V21.6081ZM15.91 17.3635H12.8639V14.3173H15.91V17.3635ZM15.91 13.1188H12.8639V10.0727H15.91V13.1188ZM20.1547 42.4486H17.1085V35.5406H20.1547V42.4486ZM20.1547 34.3421H17.1085V31.2959H20.1547V34.3421ZM20.1547 30.0974H17.1085V27.0513H20.1547V30.0974ZM20.1547 25.8528H17.1085V22.8066H20.1547V25.8528ZM20.1547 21.6081H17.1085V18.562H20.1547V21.6081ZM20.1547 17.3635H17.1085V14.3173H20.1547V17.3635ZM20.1547 13.1188H17.1085V10.0727H20.1547V13.1188ZM24.3993 42.4486H21.3532V35.5406H24.3993V42.4486ZM24.3993 34.3421H21.3532V31.2959H24.3993V34.3421ZM24.3993 30.0974H21.3532V27.0513H24.3993V30.0974ZM24.3993 25.8528H21.3532V22.8066H24.3993V25.8528ZM24.3993 21.6081H21.3532V18.562H24.3993V21.6081ZM24.3993 17.3635H21.3532V14.3173H24.3993V17.3635ZM24.3993 13.1188H21.3532V10.0727H24.3993V13.1188ZM37.333 18.562H40.3792V21.6081H37.333V18.562ZM37.333 22.8066H40.3792V25.8528H37.333V22.8066ZM37.333 27.0513H40.3792V30.0974H37.333V27.0513ZM37.333 31.2959H40.3792V34.3421H37.333V31.2959ZM33.0884 18.562H36.1345V21.6081H33.0884V18.562ZM33.0884 22.8066H36.1345V25.8528H33.0884V22.8066ZM33.0884 27.0513H36.1345V30.0974H33.0884V27.0513ZM33.0884 31.2959H36.1345V34.3421H33.0884V31.2959ZM31.8899 42.4486H28.8437V35.5406H31.8899V42.4486ZM31.8899 34.3421H28.8437V31.2959H31.8899V34.3421ZM31.8899 30.0974H28.8437V27.0513H31.8899V30.0974ZM31.8899 25.8528H28.8437V22.8066H31.8899V25.8528ZM31.8899 21.6081H28.8437V18.562H31.8899V21.6081ZM34.6516 42.4486H33.0884V35.5406H36.1345V39.4458C35.4865 39.5663 34.9333 39.985 34.6415 40.576C34.3497 41.1671 34.3536 41.8607 34.6516 42.4482V42.4486ZM36.5227 42.4046C36.0265 42.4046 35.6239 42.0023 35.6239 41.5057C35.6239 41.0094 36.0265 40.6068 36.5227 40.6068C37.0194 40.6068 37.4216 41.0094 37.4216 41.5057C37.4212 42.0019 37.019 42.4042 36.5227 42.4046ZM39.146 42.4486H38.3938C38.6571 41.9298 38.6922 41.3247 38.4909 40.7785C38.2896 40.2327 37.8702 39.7953 37.333 39.5714V35.5406H40.3792V39.5086C39.794 39.6939 39.32 40.1273 39.0824 40.6934C38.8452 41.2595 38.8682 41.9013 39.146 42.4486ZM41.0171 42.4046C40.5208 42.4046 40.1182 42.0023 40.1182 41.5057C40.1182 41.0094 40.5208 40.6068 41.0171 40.6068C41.5137 40.6068 41.9159 41.0094 41.9159 41.5057C41.9155 42.0019 41.5133 42.4042 41.0171 42.4046ZM44.8123 35.6736C44.4814 35.6736 44.213 35.942 44.213 36.2728V36.7722C43.7257 36.5412 43.4148 36.0501 43.414 35.5109V32.8475C43.414 32.0754 44.0402 31.4492 44.8123 31.4492C45.5847 31.4492 46.2105 32.0754 46.2105 32.8475V35.5109C46.2097 36.0501 45.8988 36.5409 45.4115 36.7722V36.2728C45.4115 35.942 45.1431 35.6736 44.8123 35.6736Z" fill="#222222"/>
</g>
<defs>
<clipPath id="clip0_114_1351">
<rect width="48" height="48" fill="white"/>
</clipPath>
</defs>
</svg>
