<svg width="48" height="48" viewBox="0 0 48 48" fill="none" xmlns="http://www.w3.org/2000/svg">
<path d="M48 6V3.6H6V0H3.6V3.6H0V6H3.6V45.6H1.2C0.536813 45.6 0 46.1368 0 46.8C0 47.4632 0.536813 48 1.2 48H8.4C9.06319 48 9.6 47.4632 9.6 46.8C9.6 46.1368 9.06319 45.6 8.4 45.6H6V6H14.3992V9.6H12C10.6744 9.6 9.6 10.6744 9.6 12V31.2C9.6 32.5256 10.6744 33.6 12 33.6H45.6C46.9256 33.6 48 32.5256 48 31.2V12C48 10.6744 46.9256 9.6 45.6 9.6H43.2V6H48ZM16.7992 6H40.8V9.6H16.7992V6ZM45.6 12V31.2H12V12H45.6Z" fill="#222222"/>
<path d="M15.1369 24.1667C15.0996 24.1667 15.0664 24.1548 15.0373 24.131C15.0124 24.1032 15 24.0714 15 24.0357C15 24.0198 15.0021 24.006 15.0062 23.994L16.394 20.1964C16.4065 20.1528 16.4355 20.1091 16.4812 20.0655C16.5268 20.0218 16.5911 20 16.6741 20H18.0246C18.1076 20 18.1719 20.0218 18.2175 20.0655C18.2631 20.1091 18.2922 20.1528 18.3046 20.1964L19.6925 23.994C19.6966 24.006 19.6987 24.0198 19.6987 24.0357C19.6987 24.0714 19.6842 24.1032 19.6551 24.131C19.6302 24.1548 19.5991 24.1667 19.5618 24.1667H18.4104C18.3316 24.1667 18.2735 24.1508 18.2362 24.119C18.203 24.0833 18.1802 24.0496 18.1677 24.0179L18.0184 23.625H16.6803L16.531 24.0179C16.5185 24.0496 16.4957 24.0833 16.4625 24.119C16.4293 24.1508 16.3712 24.1667 16.2882 24.1667H15.1369ZM16.9977 22.4643H17.701L17.3462 21.3571L16.9977 22.4643Z" fill="#222222"/>
<path d="M20.2083 24.1667C20.1626 24.1667 20.1232 24.1508 20.09 24.119C20.0568 24.0873 20.0402 24.0496 20.0402 24.006V20.1607C20.0402 20.1171 20.0568 20.0794 20.09 20.0476C20.1232 20.0159 20.1626 20 20.2083 20H22.094C22.4715 20 22.7993 20.0536 23.0773 20.1607C23.3594 20.2639 23.5772 20.4246 23.7307 20.6429C23.8884 20.8571 23.9672 21.129 23.9672 21.4583C23.9672 21.7877 23.8884 22.0575 23.7307 22.2679C23.5772 22.4742 23.3594 22.627 23.0773 22.7262C22.7993 22.8214 22.4715 22.869 22.094 22.869H21.6583V24.006C21.6583 24.0496 21.6417 24.0873 21.6085 24.119C21.5753 24.1508 21.5359 24.1667 21.4903 24.1667H20.2083ZM21.6272 21.7679H22.0628C22.1292 21.7679 22.1935 21.744 22.2558 21.6964C22.318 21.6448 22.3491 21.5615 22.3491 21.4464C22.3491 21.371 22.3284 21.2956 22.2869 21.2202C22.2495 21.1448 22.1749 21.1071 22.0628 21.1071H21.6272V21.7679Z" fill="#222222"/>
<path d="M24.5963 24.1667C24.5506 24.1667 24.5112 24.1508 24.478 24.119C24.4448 24.0873 24.4282 24.0496 24.4282 24.006V20.1607C24.4282 20.1171 24.4448 20.0794 24.478 20.0476C24.5112 20.0159 24.5506 20 24.5963 20H27.7889C27.8345 20 27.8739 20.0159 27.9071 20.0476C27.9403 20.0794 27.9569 20.1171 27.9569 20.1607V21C27.9569 21.0437 27.9403 21.0813 27.9071 21.1131C27.8739 21.1448 27.8345 21.1607 27.7889 21.1607H25.9218V21.5357H27.652C27.6976 21.5357 27.737 21.5516 27.7702 21.5833C27.8034 21.6151 27.82 21.6528 27.82 21.6964V22.4702C27.82 22.5139 27.8034 22.5516 27.7702 22.5833C27.737 22.6151 27.6976 22.631 27.652 22.631H25.9218V23.006H27.8387C27.8843 23.006 27.9237 23.0218 27.9569 23.0536C27.9901 23.0853 28.0067 23.123 28.0067 23.1667V24.006C28.0067 24.0496 27.9901 24.0873 27.9569 24.119C27.9237 24.1508 27.8843 24.1667 27.8387 24.1667H24.5963Z" fill="#222222"/>
<path d="M28.7472 24.1667C28.7016 24.1667 28.6622 24.1528 28.629 24.125C28.5958 24.0933 28.5792 24.0536 28.5792 24.006V20.1607C28.5792 20.1171 28.5958 20.0794 28.629 20.0476C28.6622 20.0159 28.7016 20 28.7472 20H29.967C30.0126 20 30.0521 20.0159 30.0853 20.0476C30.1184 20.0794 30.135 20.1171 30.135 20.1607V21.4107H31.1432V20.1607C31.1432 20.1171 31.1598 20.0794 31.193 20.0476C31.2262 20.0159 31.2656 20 31.3113 20H32.5311C32.5767 20 32.6161 20.0159 32.6493 20.0476C32.6825 20.0794 32.6991 20.1171 32.6991 20.1607V24.006C32.6991 24.0496 32.6825 24.0873 32.6493 24.119C32.6161 24.1508 32.5767 24.1667 32.5311 24.1667H31.3113C31.2656 24.1667 31.2262 24.1508 31.193 24.119C31.1598 24.0873 31.1432 24.0496 31.1432 24.006V22.7202H30.135V24.006C30.135 24.0496 30.1184 24.0873 30.0853 24.119C30.0521 24.1508 30.0126 24.1667 29.967 24.1667H28.7472Z" fill="#222222"/>
<path d="M33.4301 25C33.3845 25 33.345 24.9841 33.3119 24.9524C33.2787 24.9246 33.2621 24.8869 33.2621 24.8393V23.0179C33.2621 22.9742 33.2787 22.9365 33.3119 22.9048C33.345 22.873 33.3845 22.8571 33.4301 22.8571H33.5234C33.6272 22.8571 33.7081 22.8095 33.7662 22.7143C33.8284 22.619 33.874 22.496 33.9031 22.3452C33.9363 22.1905 33.957 22.0218 33.9653 21.8393C33.9778 21.6567 33.984 21.4782 33.984 21.3036V20.1607C33.984 20.1171 34.0006 20.0794 34.0338 20.0476C34.067 20.0159 34.1064 20 34.152 20H37.5002C37.5458 20 37.5853 20.0159 37.6185 20.0476C37.6516 20.0794 37.6682 20.1171 37.6682 20.1607V22.8571H37.9483C37.9939 22.8571 38.0333 22.873 38.0665 22.9048C38.0997 22.9365 38.1163 22.9742 38.1163 23.0179V24.8393C38.1163 24.8829 38.0997 24.9206 38.0665 24.9524C38.0333 24.9841 37.9939 25 37.9483 25H36.7285C36.6829 25 36.6434 24.9841 36.6103 24.9524C36.5771 24.9206 36.5605 24.8829 36.5605 24.8393V24.1667H34.8179V24.8393C34.8179 24.8829 34.8013 24.9206 34.7681 24.9524C34.7349 24.9841 34.6955 25 34.6499 25H33.4301ZM35.2971 22.8571H36.1124V21.3095H35.4776V21.494C35.4776 21.7877 35.461 22.0476 35.4278 22.2738C35.3988 22.5 35.3552 22.6944 35.2971 22.8571Z" fill="#222222"/>
<path d="M38.4382 24.1667C38.4009 24.1667 38.3677 24.1548 38.3387 24.131C38.3138 24.1032 38.3013 24.0714 38.3013 24.0357C38.3013 24.0198 38.3034 24.006 38.3075 23.994L39.6954 20.1964C39.7078 20.1528 39.7369 20.1091 39.7825 20.0655C39.8281 20.0218 39.8924 20 39.9754 20H41.3259C41.4089 20 41.4732 20.0218 41.5188 20.0655C41.5645 20.1091 41.5935 20.1528 41.606 20.1964L42.9938 23.994C42.9979 24.006 43 24.0198 43 24.0357C43 24.0714 42.9855 24.1032 42.9564 24.131C42.9315 24.1548 42.9004 24.1667 42.8631 24.1667H41.7118C41.6329 24.1667 41.5748 24.1508 41.5375 24.119C41.5043 24.0833 41.4815 24.0496 41.469 24.0179L41.3197 23.625H39.9816L39.8323 24.0179C39.8198 24.0496 39.797 24.0833 39.7638 24.119C39.7306 24.1508 39.6726 24.1667 39.5896 24.1667H38.4382ZM40.299 22.4643H41.0023L40.6476 21.3571L40.299 22.4643Z" fill="#222222"/>
</svg>
