<svg id="Слой_1" data-name="Слой 1" xmlns="http://www.w3.org/2000/svg" viewBox="0 0 21 21"><defs><style>.cls-1{fill:#222;}</style></defs><path class="cls-1" d="M12,3a9,9,0,1,1-9,9A9,9,0,0,1,12,3Zm0-1.5A10.5,10.5,0,1,0,22.5,12,10.52,10.52,0,0,0,12,1.5Z" transform="translate(-1.5 -1.5)"/><path class="cls-1" d="M17.25,11.25h-4.5V6.75A.76.76,0,0,0,12,6h0a.76.76,0,0,0-.75.75v4.5H6.75A.76.76,0,0,0,6,12H6a.76.76,0,0,0,.75.75h4.5v4.5A.76.76,0,0,0,12,18h0a.76.76,0,0,0,.75-.75v-4.5h4.5A.76.76,0,0,0,18,12h0A.76.76,0,0,0,17.25,11.25Z" transform="translate(-1.5 -1.5)"/></svg>