<svg id="Слой_1" data-name="Слой 1" xmlns="http://www.w3.org/2000/svg" viewBox="0 0 17.5 15"><defs><style>.cls-1{fill:#0072db;}</style></defs><path class="cls-1" d="M13.2,12a1.88,1.88,0,0,0,.55-1.33V4.38A1.88,1.88,0,0,0,11.88,2.5H3.12A1.88,1.88,0,0,0,1.25,4.38v6.24A1.88,1.88,0,0,0,3.12,12.5h8.76A1.88,1.88,0,0,0,13.2,12Z" transform="translate(-1.25 -2.5)"/><path class="cls-1" d="M18.41,8.29a1.93,1.93,0,0,0-.91-.68v3a5.63,5.63,0,0,1-5.62,5.63H6.36A1.85,1.85,0,0,0,8.12,17.5h3.76A7,7,0,0,0,14.51,17a6.87,6.87,0,0,0,3.72-3.72,7,7,0,0,0,.52-2.64V9.38A1.93,1.93,0,0,0,18.41,8.29Z" transform="translate(-1.25 -2.5)"/><path class="cls-1" d="M15,13.72a4.37,4.37,0,0,0,1.28-3.1V6.88A1.85,1.85,0,0,0,15,5.11v5.51a3.06,3.06,0,0,1-.24,1.2,3.18,3.18,0,0,1-1.69,1.69,3,3,0,0,1-1.19.24h-8A1.85,1.85,0,0,0,5.62,15h6.26A4.37,4.37,0,0,0,15,13.72Z" transform="translate(-1.25 -2.5)"/></svg>