<svg width="18" height="18" viewBox="0 0 18 18" fill="none" xmlns="http://www.w3.org/2000/svg">
<path d="M17.4863 8.86328L9.44141 0.824218C9.38348 0.766179 9.31468 0.720133 9.23894 0.688717C9.16319 0.6573 9.082 0.641129 9 0.641129C8.918 0.641129 8.83681 0.6573 8.76106 0.688717C8.68532 0.720133 8.61652 0.766179 8.55859 0.824218L0.513672 8.86328C0.279297 9.09766 0.146484 9.41601 0.146484 9.74805C0.146484 10.4375 0.707031 10.998 1.39648 10.998H2.24414V16.7344C2.24414 17.0801 2.52344 17.3594 2.86914 17.3594H7.75V12.9844H9.9375V17.3594H15.1309C15.4766 17.3594 15.7559 17.0801 15.7559 16.7344V10.998H16.6035C16.9355 10.998 17.2539 10.8672 17.4883 10.6309C17.9746 10.1426 17.9746 9.35156 17.4863 8.86328Z" fill="#0072DB"/>
</svg>
