<svg id="Слой_1" data-name="Слой 1" xmlns="http://www.w3.org/2000/svg" viewBox="0 0 20.01 20.93"><defs><style>.cls-1{fill:#fff;}</style></defs><path class="cls-1" d="M8.79,11.31a5.66,5.66,0,1,1,5.65-5.67h0A5.67,5.67,0,0,1,8.79,11.31Zm0-10a4.4,4.4,0,1,0,4.39,4.41v0A4.41,4.41,0,0,0,8.79,1.26Z" transform="translate(0.01 0.01)"/><path class="cls-1" d="M3.23,20.84a3.77,3.77,0,0,1-2.42-.78A3.19,3.19,0,0,1,0,17.54c.33-3.87,4.31-7.15,8.69-7.15a8.75,8.75,0,0,1,5,1.56c.2.13.39.28.58.43a.62.62,0,0,1,.1.87h0a.63.63,0,0,1-.88.1L13,13a7.58,7.58,0,0,0-4.3-1.33c-3.75,0-7.15,2.75-7.43,6a2,2,0,0,0,.4,1.49,2.78,2.78,0,0,0,1.68.44H13.8a.63.63,0,1,1,0,1.26Z" transform="translate(0.01 0.01)"/><path class="cls-1" d="M16.5,20.27a.49.49,0,0,1-.49.49h0a.49.49,0,0,1-.49-.49v-6.7a.49.49,0,0,1,.49-.49h0a.49.49,0,0,1,.5.48h0Z" transform="translate(0.01 0.01)"/><path class="cls-1" d="M16,20.92a.65.65,0,0,1-.64-.65v-6.7a.65.65,0,0,1,1.29,0v6.7a.64.64,0,0,1-.63.65Zm0-7.68a.33.33,0,0,0-.33.33v6.7a.35.35,0,0,0,.33.34.34.34,0,0,0,.34-.34v-6.7A.35.35,0,0,0,16,13.24Z" transform="translate(0.01 0.01)"/><path class="cls-1" d="M19.35,16.46a.51.51,0,0,1,.5.49h0a.5.5,0,0,1-.5.5H12.66a.5.5,0,0,1-.5-.5h0a.49.49,0,0,1,.49-.49h6.7Z" transform="translate(0.01 0.01)"/><path class="cls-1" d="M19.35,17.57H12.66a.65.65,0,1,1,0-1.3h6.69a.65.65,0,1,1,0,1.3Zm-6.69-1a.35.35,0,0,0-.34.33.34.34,0,0,0,.34.34h6.69a.34.34,0,0,0,.12-.67.24.24,0,0,0-.12,0Z" transform="translate(0.01 0.01)"/></svg>