<svg width="14" height="12" viewBox="0 0 14 12" fill="none" xmlns="http://www.w3.org/2000/svg">
<path d="M5.5 6C5.36739 6 5.24021 6.05268 5.14645 6.14645C5.05268 6.24021 5 6.36739 5 6.5C5 6.63261 5.05268 6.75979 5.14645 6.85355C5.24021 6.94732 5.36739 7 5.5 7H8.5C8.63261 7 8.75979 6.94732 8.85355 6.85355C8.94732 6.75979 9 6.63261 9 6.5C9 6.36739 8.94732 6.24021 8.85355 6.14645C8.75979 6.05268 8.63261 6 8.5 6H5.5ZM2.06237e-07 1.5C2.06237e-07 1.10218 0.158036 0.720644 0.43934 0.43934C0.720645 0.158035 1.10218 0 1.5 0H12.5C12.8978 0 13.2794 0.158035 13.5607 0.43934C13.842 0.720644 14 1.10218 14 1.5V2.5C14.0002 2.81033 13.9041 3.11306 13.725 3.36649C13.5459 3.61992 13.2926 3.81156 13 3.915V9.5C13 10.163 12.7366 10.7989 12.2678 11.2678C11.7989 11.7366 11.163 12 10.5 12H3.5C2.83696 12 2.20107 11.7366 1.73223 11.2678C1.26339 10.7989 1 10.163 1 9.5V3.915C0.707422 3.81156 0.454129 3.61992 0.275028 3.36649C0.0959278 3.11306 -0.00016248 2.81033 2.06237e-07 2.5V1.5ZM1.5 1C1.36739 1 1.24022 1.05268 1.14645 1.14645C1.05268 1.24021 1 1.36739 1 1.5V2.5C1 2.63261 1.05268 2.75979 1.14645 2.85355C1.24022 2.94732 1.36739 3 1.5 3H12.5C12.6326 3 12.7598 2.94732 12.8536 2.85355C12.9473 2.75979 13 2.63261 13 2.5V1.5C13 1.36739 12.9473 1.24021 12.8536 1.14645C12.7598 1.05268 12.6326 1 12.5 1H1.5ZM2 4V9.5C2 9.89782 2.15804 10.2794 2.43934 10.5607C2.72064 10.842 3.10218 11 3.5 11H10.5C10.8978 11 11.2794 10.842 11.5607 10.5607C11.842 10.2794 12 9.89782 12 9.5V4H2Z" fill="#222222"/>
</svg>
