<svg id="Слой_1" data-name="Слой 1" xmlns="http://www.w3.org/2000/svg" viewBox="0 0 16.5 12.75"><defs><style>.cls-1{fill:#0072db;}</style></defs><path class="cls-1" d="M19.1,6a1.41,1.41,0,0,1,.36-.24,1.06,1.06,0,0,1,.43-.08,1,1,0,0,1,.42.08,1.13,1.13,0,0,1,.38,1.82L11.82,18a1,1,0,0,1-.79.36,1,1,0,0,1-.44-.08,1.12,1.12,0,0,1-.37-.24l-5.4-5.47a1.19,1.19,0,0,1-.32-.8A1.15,1.15,0,0,1,4.82,11a1.23,1.23,0,0,1,.36-.25,1.2,1.2,0,0,1,.86,0A1.23,1.23,0,0,1,6.4,11L11,15.63,19.07,6Z" transform="translate(-4.5 -5.63)"/></svg>