<svg width="14" height="17" viewBox="0 0 14 17" fill="none" xmlns="http://www.w3.org/2000/svg">
<path fill-rule="evenodd" clip-rule="evenodd" d="M14 5V14.5C14 15.0304 13.7893 15.5391 13.4142 15.9142C13.0391 16.2893 12.5304 16.5 12 16.5V15.5C12.2652 15.5 12.5196 15.3946 12.7071 15.2071C12.8946 15.0196 13 14.7652 13 14.5V5H11C10.6022 5 10.2206 4.84196 9.93934 4.56066C9.65804 4.27936 9.5 3.89782 9.5 3.5V1.5H4C3.73478 1.5 3.48043 1.60536 3.29289 1.79289C3.10536 1.98043 3 2.23478 3 2.5V11.5H2V2.5C2 1.96957 2.21071 1.46086 2.58579 1.08579C2.96086 0.710714 3.46957 0.5 4 0.5L9.5 0.5L14 5ZM6.161 14.166V14.688C6.161 14.944 6.122 15.158 6.044 15.329C5.97762 15.4872 5.86549 15.622 5.722 15.716C5.58064 15.8013 5.41808 15.845 5.253 15.842C5.08729 15.845 4.92406 15.8014 4.782 15.716C4.63969 15.6216 4.52837 15.4873 4.462 15.33C4.37788 15.1267 4.338 14.9079 4.345 14.688V14.166C4.345 13.909 4.385 13.695 4.462 13.525C4.52821 13.3673 4.63953 13.2327 4.782 13.138C4.92342 13.0508 5.08689 13.006 5.253 13.009C5.429 13.009 5.585 13.052 5.722 13.139C5.86534 13.2328 5.97745 13.3672 6.044 13.525C6.122 13.695 6.161 13.909 6.161 14.166ZM6.964 14.685V14.172C6.964 13.795 6.896 13.472 6.759 13.2C6.63059 12.9355 6.42529 12.7159 6.17 12.57C5.916 12.423 5.61 12.35 5.253 12.35C4.898 12.35 4.591 12.423 4.333 12.57C4.07741 12.7142 3.87191 12.9329 3.744 13.197C3.608 13.468 3.539 13.793 3.539 14.172V14.685C3.539 15.06 3.608 15.385 3.744 15.658C3.881 15.929 4.077 16.138 4.334 16.285C4.591 16.429 4.898 16.501 5.254 16.501C5.611 16.501 5.916 16.429 6.17 16.285C6.426 16.138 6.622 15.929 6.76 15.658C6.896 15.384 6.964 15.06 6.964 14.685ZM0 12.426V16.426H1.459C1.861 16.426 2.194 16.346 2.458 16.188C2.72516 16.0282 2.93377 15.7866 3.053 15.499C3.183 15.199 3.249 14.837 3.249 14.415C3.249 13.995 3.184 13.637 3.053 13.34C2.93492 13.0556 2.72794 12.817 2.463 12.66C2.2 12.504 1.865 12.426 1.459 12.426H0ZM0.791 13.071H1.354C1.602 13.071 1.804 13.121 1.963 13.223C2.12804 13.3309 2.25256 13.4906 2.317 13.677C2.396 13.878 2.435 14.129 2.435 14.43C2.4381 14.6294 2.41524 14.8285 2.367 15.022C2.33135 15.1746 2.26463 15.3183 2.171 15.444C2.08399 15.5561 1.96872 15.6431 1.837 15.696C1.68266 15.7537 1.51875 15.7816 1.354 15.778H0.79V13.07L0.791 13.071ZM8.213 13.554C8.13956 13.7567 8.10463 13.9714 8.11 14.187V14.682C8.11 14.928 8.144 15.137 8.213 15.309C8.27044 15.467 8.37432 15.604 8.511 15.702C8.65366 15.7925 8.82016 15.8381 8.989 15.833C9.12778 15.8362 9.26529 15.806 9.39 15.745C9.50156 15.6883 9.59584 15.6026 9.663 15.497C9.73085 15.3869 9.77099 15.262 9.78 15.133H10.545V15.209C10.5355 15.4506 10.4571 15.6845 10.319 15.883C10.182 16.077 9.999 16.228 9.769 16.337C9.52258 16.4498 9.25397 16.5059 8.983 16.501C8.623 16.501 8.319 16.429 8.069 16.285C7.81941 16.1388 7.62024 15.9201 7.498 15.658C7.368 15.386 7.304 15.061 7.304 14.682V14.184C7.304 13.805 7.37 13.479 7.501 13.206C7.631 12.932 7.822 12.721 8.072 12.573C8.324 12.424 8.628 12.35 8.983 12.35C9.202 12.35 9.404 12.382 9.59 12.447C9.777 12.509 9.94 12.6 10.079 12.719C10.2194 12.8385 10.3334 12.9859 10.4136 13.1519C10.4939 13.3179 10.5386 13.4987 10.545 13.683V13.756H9.78C9.77068 13.6216 9.72955 13.4914 9.66 13.376C9.59463 13.2656 9.5002 13.1753 9.387 13.115C9.26497 13.0488 9.12783 13.0153 8.989 13.018C8.82019 13.0136 8.65419 13.0618 8.514 13.156C8.37687 13.2563 8.27221 13.3947 8.213 13.554Z" fill="#222222"/>
</svg>
