<svg width="14" height="14" viewBox="0 0 14 14" fill="none" xmlns="http://www.w3.org/2000/svg">
<path d="M7.15987 0.975985C7.0858 0.976012 7.01267 0.99254 6.94579 1.02437C6.8789 1.0562 6.81995 1.10252 6.77321 1.15999L6.73454 1.18865C6.00964 0.96803 5.23853 0.947787 4.50305 1.13007C3.76758 1.31236 3.09517 1.69037 2.55721 2.22399C2.08038 2.69617 1.7258 3.27744 1.52415 3.91749C1.32249 4.55754 1.27984 5.23708 1.39987 5.89732L1.38987 5.90732L0.751208 6.54132C0.619323 6.67198 0.514635 6.82748 0.44319 6.99884C0.371746 7.17019 0.334961 7.354 0.334961 7.53965C0.334961 7.7253 0.371746 7.90911 0.44319 8.08047C0.514635 8.25182 0.619323 8.40732 0.751208 8.53798C0.906324 8.69205 1.09483 8.80832 1.30212 8.87781C1.50941 8.94729 1.72991 8.96811 1.94654 8.93865C2.0238 9.21974 2.18573 9.47022 2.41032 9.65605C2.63492 9.84189 2.91129 9.95406 3.20187 9.97732C3.23175 10.3192 3.38439 10.6386 3.63159 10.8766C3.87879 11.1146 4.20381 11.2551 4.54654 11.272C4.56387 11.61 4.70187 11.942 4.96121 12.1993C5.46787 12.7033 6.26254 12.7467 6.81921 12.3307L7.07721 12.5866C7.34575 12.8527 7.7085 13.002 8.08654 13.002C8.46458 13.002 8.82734 12.8527 9.09587 12.5866C9.34254 12.3413 9.48054 12.028 9.50921 11.708C9.84188 11.6798 10.154 11.5352 10.3905 11.2996C10.6271 11.064 10.773 10.7525 10.8025 10.42C11.0956 10.3931 11.373 10.2757 11.5964 10.0841C11.8197 9.89249 11.978 9.63618 12.0492 9.35065C12.2626 9.37622 12.479 9.35315 12.6822 9.28319C12.8854 9.21322 13.0701 9.09817 13.2225 8.94665C13.3543 8.816 13.4589 8.66054 13.5303 8.48925C13.6017 8.31796 13.6385 8.13422 13.6385 7.94865C13.6385 7.76308 13.6017 7.57935 13.5303 7.40805C13.4589 7.23676 13.3543 7.0813 13.2225 6.95065L12.6672 6.39798L12.7819 5.95398C13.0299 4.98776 12.905 3.96355 12.4319 3.08532C12.0876 2.44774 11.5772 1.91525 10.9548 1.54434C10.3324 1.17344 9.62111 0.977959 8.89654 0.978652H7.82521C7.77946 0.976653 7.73367 0.975764 7.68787 0.975985H7.16054H7.15987ZM9.10987 4.27265L11.4192 6.56732L11.4212 6.56998L11.4305 6.57865L12.5139 7.65532C12.5526 7.69374 12.5833 7.73944 12.6043 7.78978C12.6252 7.84012 12.636 7.89412 12.636 7.94865C12.636 8.00318 12.6252 8.05718 12.6043 8.10752C12.5833 8.15787 12.5526 8.20357 12.5139 8.24198C12.4352 8.31974 12.3291 8.36336 12.2185 8.36336C12.108 8.36336 12.0018 8.31974 11.9232 8.24198L10.8399 7.16532C10.7455 7.07185 10.618 7.01941 10.4852 7.01941C10.3524 7.01941 10.2249 7.07185 10.1305 7.16532L10.1199 7.17665C10.0733 7.22277 10.0364 7.27765 10.0112 7.33812C9.98596 7.3986 9.97298 7.46347 9.97298 7.52899C9.97298 7.5945 9.98596 7.65937 10.0112 7.71985C10.0364 7.78032 10.0733 7.8352 10.1199 7.88132L10.9639 8.72065C11.0026 8.75907 11.0333 8.80477 11.0543 8.85511C11.0752 8.90546 11.086 8.95945 11.086 9.01398C11.086 9.06852 11.0752 9.12251 11.0543 9.17286C11.0333 9.2232 11.0026 9.2689 10.9639 9.30732C10.8927 9.37817 10.7985 9.42116 10.6983 9.4285C10.5981 9.43584 10.4986 9.40704 10.4179 9.34732C10.3209 9.27472 10.201 9.23948 10.0802 9.24805C9.95934 9.25662 9.84563 9.30843 9.75987 9.39398C9.67446 9.47937 9.62314 9.59298 9.61553 9.71351C9.60792 9.83404 9.64455 9.9532 9.71854 10.0487C9.78004 10.1285 9.81026 10.228 9.8035 10.3286C9.79675 10.4291 9.7535 10.5238 9.68188 10.5947C9.60942 10.6665 9.51331 10.7094 9.41149 10.7156C9.30967 10.7217 9.20909 10.6906 9.12854 10.628C9.03217 10.5528 8.91175 10.5152 8.78973 10.5222C8.6677 10.5292 8.55237 10.5803 8.46521 10.666C8.37834 10.7515 8.32598 10.8659 8.31811 10.9875C8.31024 11.1091 8.34742 11.2294 8.42254 11.3253C8.48553 11.4064 8.51664 11.5077 8.51001 11.6101C8.50338 11.7126 8.45945 11.8091 8.38654 11.8813C8.30667 11.9603 8.19887 12.0046 8.08654 12.0046C7.97421 12.0046 7.86641 11.9603 7.78654 11.8813L7.53854 11.6353L7.60854 11.5653C7.74032 11.4347 7.84493 11.2792 7.91631 11.1079C7.9877 10.9366 8.02445 10.7529 8.02445 10.5673C8.02445 10.3817 7.9877 10.198 7.91631 10.0267C7.84493 9.85543 7.74032 9.69997 7.60854 9.56932C7.35921 9.32111 7.02661 9.17429 6.67521 9.15732C6.65618 8.81481 6.51376 8.49077 6.27428 8.24516C6.03479 7.99955 5.71446 7.84899 5.37254 7.82132C5.34524 7.48742 5.19933 7.17431 4.96121 6.93865C4.80609 6.78459 4.61758 6.66831 4.4103 6.59883C4.20301 6.52935 3.9825 6.50853 3.76587 6.53799C3.68125 6.23114 3.49611 5.96155 3.24011 5.77239C2.98411 5.58323 2.67205 5.48543 2.35387 5.49465C2.30325 5.02574 2.35902 4.55145 2.51703 4.10707C2.67505 3.66269 2.93124 3.25967 3.26654 2.92799C3.579 2.61758 3.95256 2.37551 4.36354 2.21713C4.77451 2.05876 5.21392 1.98754 5.65387 2.00799L4.65587 2.76332C4.49369 2.88606 4.35739 3.03966 4.2548 3.21528C4.1522 3.3909 4.08535 3.58508 4.05809 3.78663C4.03083 3.98819 4.04369 4.19315 4.09594 4.38971C4.14819 4.58628 4.2388 4.77057 4.36254 4.93198C4.61246 5.25777 4.98106 5.4715 5.38795 5.52658C5.79485 5.58166 6.20701 5.4736 6.53454 5.22598L7.79387 4.27198H9.10987V4.27265ZM5.25921 3.56132L7.35187 1.97599H7.68787C7.72946 1.97568 7.77104 1.97679 7.81254 1.97932H8.89654C9.44043 1.97859 9.97438 2.12507 10.4418 2.40324C10.9091 2.68142 11.2925 3.0809 11.5512 3.55932C11.8812 4.17265 11.9845 4.87798 11.8472 5.55598L9.70654 3.42532C9.65995 3.37707 9.60412 3.33869 9.54239 3.31246C9.48066 3.28624 9.41428 3.2727 9.34721 3.27265H7.62654C7.51752 3.2726 7.41147 3.30819 7.32454 3.37398L5.93121 4.42932C5.81436 4.5175 5.66741 4.55597 5.52234 4.53637C5.37727 4.51677 5.2458 4.44068 5.15654 4.32465C5.11295 4.26785 5.08103 4.20298 5.06262 4.13378C5.04421 4.06458 5.03968 3.99243 5.04928 3.92147C5.05889 3.85051 5.08244 3.78216 5.11859 3.72035C5.15473 3.65854 5.20275 3.60449 5.25987 3.56132H5.25921ZM3.02321 8.86465C2.98451 8.82623 2.95379 8.78053 2.93283 8.73019C2.91187 8.67985 2.90108 8.62585 2.90108 8.57132C2.90108 8.51679 2.91187 8.46279 2.93283 8.41245C2.95379 8.3621 2.98451 8.3164 3.02321 8.27798L3.66121 7.64332C3.73984 7.56556 3.84596 7.52195 3.95654 7.52195C4.06713 7.52195 4.17325 7.56556 4.25187 7.64332C4.32913 7.72 4.37302 7.82405 4.37402 7.93289C4.37501 8.04173 4.33304 8.14657 4.25721 8.22465L4.25187 8.22999L3.61387 8.86398L3.60787 8.86999C3.52883 8.94523 3.42359 8.98676 3.31446 8.98576C3.20533 8.98477 3.10087 8.94133 3.02321 8.86465ZM2.69587 6.61865C2.77145 6.69668 2.81315 6.8014 2.8119 6.91002C2.81065 7.01865 2.76656 7.12238 2.68921 7.19865L2.05121 7.83332C1.97258 7.91108 1.86646 7.95469 1.75587 7.95469C1.64529 7.95469 1.53917 7.91108 1.46054 7.83332C1.42184 7.7949 1.39112 7.7492 1.37016 7.69886C1.3492 7.64851 1.33841 7.59452 1.33841 7.53999C1.33841 7.48545 1.3492 7.43146 1.37016 7.38111C1.39112 7.33077 1.42184 7.28507 1.46054 7.24665L2.09921 6.61265C2.17783 6.53489 2.28396 6.49128 2.39454 6.49128C2.50513 6.49128 2.61125 6.53489 2.68987 6.61265L2.69587 6.61865ZM6.26121 11.4947C6.18258 11.5724 6.07646 11.616 5.96587 11.616C5.85529 11.616 5.74917 11.5724 5.67054 11.4947C5.63184 11.4562 5.60112 11.4105 5.58016 11.3602C5.5592 11.3098 5.54841 11.2559 5.54841 11.2013C5.54841 11.1468 5.5592 11.0928 5.58016 11.0424C5.60112 10.9921 5.63184 10.9464 5.67054 10.908L6.30854 10.274C6.38717 10.1962 6.49329 10.1526 6.60387 10.1526C6.71446 10.1526 6.82058 10.1962 6.89921 10.274C6.93791 10.3124 6.96862 10.3581 6.98958 10.4084C7.01055 10.4588 7.02134 10.5128 7.02134 10.5673C7.02134 10.6219 7.01055 10.6758 6.98958 10.7262C6.96862 10.7765 6.93791 10.8222 6.89921 10.8607L6.26121 11.4947ZM4.91387 10.156C4.83533 10.2339 4.72918 10.2776 4.61854 10.2776C4.5079 10.2776 4.40175 10.2339 4.32321 10.156C4.24587 10.0794 4.20185 9.97539 4.20073 9.86655C4.19961 9.75771 4.24146 9.65282 4.31721 9.57465L4.32321 9.56932L4.96121 8.93532L4.96654 8.92932C5.04571 8.85396 5.15113 8.81243 5.26043 8.81355C5.36972 8.81467 5.47427 8.85835 5.55187 8.93532C5.59058 8.97374 5.62129 9.01944 5.64225 9.06978C5.66321 9.12012 5.674 9.17412 5.674 9.22865C5.674 9.28319 5.66321 9.33718 5.64225 9.38752C5.62129 9.43787 5.59058 9.48357 5.55187 9.52199L4.91387 10.156Z" fill="#222222"/>
</svg>
