<svg id="Слой_1" data-name="Слой 1" xmlns="http://www.w3.org/2000/svg" viewBox="0 0 20 20"><defs><style>.cls-1{fill:#162331;}</style></defs><path class="cls-1" d="M16.83.47.47,16.84a.94.94,0,0,1-.65.26.92.92,0,0,1-.65-.26.93.93,0,0,1-.27-.65,1,1,0,0,1,.27-.65L15.53-.83A1,1,0,0,1,16.16-1a.93.93,0,0,1,.61.27A.93.93,0,0,1,17-.16,1,1,0,0,1,16.83.47ZM-.81,5A4.13,4.13,0,0,1-2,2.09,4.16,4.16,0,0,1-.81-.81,4.13,4.13,0,0,1,5-.81,4.14,4.14,0,0,1,6.06,2.05a4.05,4.05,0,0,1-1.2,2.81,4.07,4.07,0,0,1-2.81,1.2A4.09,4.09,0,0,1-.81,5Zm.63-2.9A2.32,2.32,0,0,0,0,3a2.36,2.36,0,0,0,.5.74,2.23,2.23,0,0,0,.73.49A2.31,2.31,0,0,0,3,4.19a2.23,2.23,0,0,0,.73-.49A2.2,2.2,0,0,0,4.19,3a2.32,2.32,0,0,0,.17-.87,2.4,2.4,0,0,0-.17-.87,2.26,2.26,0,0,0-.5-.73A2.43,2.43,0,0,0,3,0,2.31,2.31,0,0,0,1.22,0,2.41,2.41,0,0,0,0,1.22,2.4,2.4,0,0,0-.18,2.09ZM18,13.92a4,4,0,0,1-.49,1.92A4.08,4.08,0,0,1,14.31,18a4,4,0,0,1-2-.29,4.07,4.07,0,0,1-1.59-1.19,4,4,0,0,1-.85-1.79A4.05,4.05,0,0,1,11,11a4.1,4.1,0,0,1,5.8,0,4,4,0,0,1,.88,1.33A4,4,0,0,1,18,13.92Zm-1.82,0a2.32,2.32,0,0,0-.17-.87,2.36,2.36,0,0,0-.5-.74,2.23,2.23,0,0,0-.73-.49,2.19,2.19,0,0,0-1.74,0,2.23,2.23,0,0,0-.73.49,2.24,2.24,0,0,0-.13,3,2.26,2.26,0,0,0,2,.81,2.14,2.14,0,0,0,1-.37,2.27,2.27,0,0,0,.74-.8A2.2,2.2,0,0,0,16.18,13.92Z" transform="translate(2 2)"/></svg>