<svg width="16" height="16" viewBox="0 0 16 16" fill="none" xmlns="http://www.w3.org/2000/svg">
<path d="M15.0636 1.97419L1.97319 15.0712C1.83418 15.2057 1.64839 15.2809 1.45503 15.2809C1.26166 15.2809 1.07587 15.2057 0.936862 15.0712C0.800298 14.9333 0.723687 14.747 0.723687 14.5528C0.723687 14.3587 0.800298 14.1723 0.936862 14.0344L14.0273 0.937334C14.1686 0.821307 14.348 0.762012 14.5306 0.770984C14.7132 0.779955 14.8859 0.856552 15.0151 0.985874C15.1444 1.1152 15.2209 1.288 15.2299 1.47067C15.2389 1.65334 15.1796 1.83281 15.0636 1.97419ZM0.955043 5.59407C0.34329 4.97734 0 4.14368 0 3.2748C0 2.40591 0.34329 1.57225 0.955043 0.955525C1.57145 0.343463 2.4047 0 3.27314 0C4.14159 0 4.97484 0.343463 5.59125 0.955525C6.16052 1.57957 6.46744 2.39915 6.44818 3.24381C6.42892 4.08847 6.08496 4.89319 5.48784 5.49061C4.89072 6.08803 4.0864 6.43216 3.24217 6.45143C2.39794 6.4707 1.57877 6.16362 0.955043 5.59407ZM1.45503 3.2748C1.45453 3.51352 1.50172 3.74994 1.59382 3.97017C1.68593 4.1904 1.82109 4.38999 1.99137 4.55722C2.15945 4.72606 2.3592 4.86004 2.57916 4.95146C2.79912 5.04288 3.03496 5.08994 3.27314 5.08994C3.51133 5.08994 3.74717 5.04288 3.96713 4.95146C4.18709 4.86004 4.38684 4.72606 4.55492 4.55722C4.72478 4.38967 4.85966 4.19002 4.95173 3.96987C5.04379 3.74971 5.0912 3.51344 5.0912 3.2748C5.0912 3.03615 5.04379 2.79988 4.95173 2.57973C4.85966 2.35957 4.72478 2.15992 4.55492 1.99238C4.38746 1.82243 4.18791 1.68748 3.96786 1.59537C3.74782 1.50326 3.51167 1.45583 3.27314 1.45583C3.03462 1.45583 2.79847 1.50326 2.57843 1.59537C2.35838 1.68748 2.15883 1.82243 1.99137 1.99238C1.82109 2.15961 1.68593 2.3592 1.59382 2.57942C1.50172 2.79965 1.45453 3.03607 1.45503 3.2748ZM16 12.7338C15.9987 13.2717 15.8649 13.8009 15.6106 14.2748C15.3562 14.7487 14.9891 15.1525 14.5417 15.4507C14.0943 15.7489 13.5803 15.9323 13.0453 15.9845C12.5102 16.0368 11.9705 15.9563 11.4739 15.7503C10.9773 15.5443 10.5391 15.2191 10.198 14.8033C9.85683 14.3876 9.62333 13.8942 9.51808 13.3667C9.41284 12.8393 9.43909 12.294 9.59453 11.7791C9.74996 11.2642 10.0298 10.7955 10.4093 10.4145C11.0257 9.80245 11.8589 9.45899 12.7274 9.45899C13.5958 9.45899 14.4291 9.80245 15.0455 10.4145C15.3495 10.7191 15.5904 11.0808 15.7542 11.4788C15.918 11.8768 16.0015 12.3033 16 12.7338ZM14.5455 12.7338C14.546 12.4951 14.4988 12.2586 14.4067 12.0384C14.3146 11.8182 14.1794 11.6186 14.0091 11.4514C13.8417 11.2814 13.6421 11.1465 13.4221 11.0544C13.202 10.9622 12.9659 10.9148 12.7274 10.9148C12.4888 10.9148 12.2527 10.9622 12.0326 11.0544C11.8126 11.1465 11.613 11.2814 11.4456 11.4514C11.2381 11.6628 11.0857 11.922 11.0017 12.2062C10.9177 12.4904 10.9048 12.7908 10.964 13.0812C11.0232 13.3715 11.1528 13.6429 11.3413 13.8714C11.5298 14.1 11.7716 14.2787 12.0453 14.3919C12.319 14.5051 12.6163 14.5494 12.9111 14.5208C13.2059 14.4922 13.4891 14.3917 13.736 14.2279C13.9829 14.0642 14.1858 13.8423 14.3269 13.5818C14.4681 13.3213 14.5431 13.0301 14.5455 12.7338Z" fill="#162331"/>
</svg>
