<svg width="24" height="24" viewBox="0 0 24 24" fill="none" xmlns="http://www.w3.org/2000/svg">
<path d="M5.04 7.68C2.27016 7.68 0 9.9432 0 12.7056C0 13.776 0.34176 14.7708 0.9204 15.5885L4.42512 21.647C4.91592 22.2883 5.24232 22.1666 5.65056 21.6134L9.516 15.035C9.594 14.8934 9.6552 14.7432 9.70872 14.5896C9.95401 13.9918 10.0801 13.3518 10.08 12.7056C10.08 9.9432 7.81056 7.68 5.04 7.68ZM5.04 10.0349C6.53184 10.0349 7.7184 11.2183 7.7184 12.7058C7.7184 14.1934 6.53184 15.3763 5.04 15.3763C3.5484 15.3763 2.3616 14.1931 2.3616 12.7058C2.3616 11.2183 3.5484 10.0349 5.04 10.0349ZM21.06 0C19.4443 0 18.12 1.32024 18.12 2.93184C18.12 3.55608 18.3192 4.1364 18.6569 4.61328L20.7014 8.14752C20.9878 8.52144 21.1781 8.4504 21.4162 8.12784L23.671 4.29024C23.7166 4.20792 23.7523 4.12032 23.7833 4.03056C23.9264 3.68194 24 3.3087 24 2.93184C24 1.32 22.6762 0 21.06 0ZM21.06 1.37376C21.9302 1.37376 22.6224 2.064 22.6224 2.93184C22.6224 3.79944 21.9302 4.48944 21.06 4.48944C20.19 4.48944 19.4976 3.79944 19.4976 2.93184C19.4976 2.064 20.19 1.37376 21.06 1.37376Z" fill="white"/>
<path fill-rule="evenodd" clip-rule="evenodd" d="M21.1701 8.97888C20.6308 8.99088 20.0901 9.01368 19.5484 9.05376L19.6319 10.3814C20.1522 10.3438 20.6735 10.3195 21.195 10.3087L21.1701 8.97888ZM18.2961 9.17568C17.4633 9.27912 16.6233 9.42648 15.7929 9.66336L16.1056 10.95C16.8602 10.735 17.6421 10.596 18.4362 10.4974L18.2961 9.17568ZM14.5494 10.1088C14.3006 10.2186 14.0597 10.3456 13.8285 10.4887L13.8275 10.4899L13.8261 10.4904C13.4961 10.6982 13.1483 10.962 12.8644 11.3453C12.6587 11.623 12.4905 11.9741 12.4511 12.3893L13.6739 12.5249C13.683 12.4274 13.733 12.2988 13.8227 12.1778H13.8232V12.1774C13.9679 11.9815 14.1849 11.8037 14.4429 11.641L14.4438 11.6405C14.6277 11.527 14.8192 11.4263 15.017 11.339L14.5494 10.1088ZM13.9199 13.1172L13.1272 14.1336C13.3151 14.3054 13.5122 14.4374 13.7025 14.5478L13.7049 14.549L13.7073 14.5505C14.339 14.9098 14.9903 15.1126 15.5942 15.305L15.9412 14.0287C15.3376 13.8362 14.7686 13.6505 14.2809 13.3735C14.1412 13.2924 14.0188 13.2077 13.9199 13.1172ZM17.1203 14.3878L16.7814 15.6662L16.9418 15.7162L17.1386 15.779C17.7899 15.991 18.4139 16.2173 18.9717 16.5305L19.5376 15.3497C18.8632 14.9707 18.1631 14.723 17.4885 14.5037L17.4866 14.5032L17.2845 14.4386L17.1203 14.3878ZM20.6884 16.2358L19.8189 17.1766C20.0243 17.399 20.1782 17.6666 20.253 17.9431L20.2535 17.9446L20.254 17.9467C20.3433 18.2695 20.3435 18.6492 20.2737 19.0327L21.4794 19.29C21.5778 18.7486 21.5937 18.1541 21.4319 17.5673C21.291 17.0484 21.0222 16.5977 20.6884 16.2358ZM19.8527 19.8343C19.7198 19.9747 19.573 20.1011 19.4145 20.2116H19.414C18.982 20.5154 18.4809 20.7444 17.9486 20.9412L18.3455 22.1998C18.9278 21.9845 19.5256 21.7205 20.0843 21.3274L20.0858 21.3262L20.0865 21.3257C20.3159 21.165 20.5282 20.9811 20.7198 20.7768L19.8527 19.8343ZM16.8191 21.2957C16.048 21.503 15.2598 21.661 14.4621 21.7949L14.6502 23.1098C15.4713 22.9718 16.2957 22.807 17.115 22.5866L16.8191 21.2957ZM13.2618 21.9763C12.4588 22.086 11.6514 22.1755 10.8417 22.2518L10.9478 23.5771C11.77 23.4998 12.5937 23.4089 13.4162 23.2963L13.2618 21.9763ZM9.62464 22.3562C8.8132 22.4206 7.99984 22.4729 7.18576 22.517L7.2472 23.8457C8.0692 23.8013 8.89192 23.7482 9.7144 23.683L9.62464 22.3562ZM5.96248 22.577C5.47456 22.5998 4.98544 22.6186 4.49512 22.6358L4.53544 23.9657C5.02882 23.9487 5.52211 23.929 6.01528 23.9066L5.96248 22.577Z" fill="white"/>
</svg>
