<svg width="24" height="24" viewBox="0 0 24 24" fill="none" xmlns="http://www.w3.org/2000/svg">
<path d="M10.125 2.25C5.77575 2.25 2.25 5.77575 2.25 10.125C2.25 14.4742 5.77575 18 10.125 18C11.9625 18 13.6523 17.3707 14.9918 16.317L20.1502 21.4755C20.2373 21.5626 20.3407 21.6316 20.4544 21.6788C20.5682 21.7259 20.6901 21.7501 20.8132 21.7501C20.9364 21.7501 21.0583 21.7259 21.1721 21.6788C21.2858 21.6316 21.3892 21.5626 21.4762 21.4755C21.5633 21.3884 21.6324 21.2851 21.6795 21.1713C21.7266 21.0576 21.7509 20.9356 21.7509 20.8125C21.7509 20.6894 21.7266 20.5674 21.6795 20.4537C21.6324 20.3399 21.5633 20.2366 21.4762 20.1495L16.317 14.991C17.4097 13.6047 18.0027 11.8902 18 10.125C18 5.77575 14.4742 2.25 10.125 2.25ZM4.125 10.125C4.125 8.5337 4.75714 7.00758 5.88236 5.88236C7.00758 4.75714 8.5337 4.125 10.125 4.125C11.7163 4.125 13.2424 4.75714 14.3676 5.88236C15.4929 7.00758 16.125 8.5337 16.125 10.125C16.125 11.7163 15.4929 13.2424 14.3676 14.3676C13.2424 15.4929 11.7163 16.125 10.125 16.125C8.5337 16.125 7.00758 15.4929 5.88236 14.3676C4.75714 13.2424 4.125 11.7163 4.125 10.125Z" fill="#575757"/>
</svg>
