<svg width="12" height="8" viewBox="0 0 12 8" fill="none" xmlns="http://www.w3.org/2000/svg">
<path d="M11.0416 3.69766C9.93066 1.35742 8.25136 0.179688 6.00019 0.179688C3.74785 0.179688 2.06972 1.35742 0.958784 3.69883C0.914223 3.79318 0.891113 3.89624 0.891113 4.00059C0.891113 4.10493 0.914223 4.20799 0.958784 4.30234C2.06972 6.64258 3.74902 7.82031 6.00019 7.82031C8.25253 7.82031 9.93066 6.64258 11.0416 4.30117C11.1318 4.11133 11.1318 3.89102 11.0416 3.69766ZM6.00019 6.97656C4.10996 6.97656 2.72597 6.01797 1.7498 4C2.72597 1.98203 4.10996 1.02344 6.00019 1.02344C7.89042 1.02344 9.27441 1.98203 10.2506 4C9.27558 6.01797 7.8916 6.97656 6.00019 6.97656ZM5.95331 1.9375C4.81425 1.9375 3.89081 2.86094 3.89081 4C3.89081 5.13906 4.81425 6.0625 5.95331 6.0625C7.09238 6.0625 8.01581 5.13906 8.01581 4C8.01581 2.86094 7.09238 1.9375 5.95331 1.9375ZM5.95331 5.3125C5.22792 5.3125 4.64081 4.72539 4.64081 4C4.64081 3.27461 5.22792 2.6875 5.95331 2.6875C6.67871 2.6875 7.26581 3.27461 7.26581 4C7.26581 4.72539 6.67871 5.3125 5.95331 5.3125Z" fill="#222222"/>
</svg>
