<svg width="10" height="6" viewBox="0 0 10 6" fill="none" xmlns="http://www.w3.org/2000/svg">
<path d="M4.99953 5.16668C4.84376 5.16698 4.69281 5.11273 4.57287 5.01334L0.572866 1.68001C0.436722 1.56685 0.351105 1.40424 0.334852 1.22796C0.318599 1.05168 0.37304 0.876155 0.486199 0.740011C0.599358 0.603866 0.761966 0.51825 0.93825 0.501997C1.11453 0.485744 1.29005 0.540185 1.4262 0.653344L4.99953 3.64001L8.57287 0.760011C8.64106 0.704634 8.71952 0.663279 8.80375 0.638325C8.88797 0.61337 8.9763 0.605308 9.06365 0.614601C9.15101 0.623893 9.23566 0.650358 9.31275 0.692474C9.38984 0.73459 9.45785 0.791526 9.51287 0.860011C9.57392 0.928558 9.62016 1.00898 9.64869 1.09623C9.67722 1.18347 9.68742 1.27567 9.67866 1.36705C9.66989 1.45843 9.64236 1.54701 9.59777 1.62724C9.55318 1.70748 9.4925 1.77765 9.41953 1.83334L5.41953 5.05334C5.29614 5.13702 5.14827 5.17692 4.99953 5.16668Z" fill="#222222"/>
</svg>
