<svg id="Слой_1" data-name="Слой 1" xmlns="http://www.w3.org/2000/svg" viewBox="0 0 9.35 4.67"><defs><style>.cls-1{fill:#222;}</style></defs><path class="cls-1" d="M8,6a.66.66,0,0,1,.43.15l4,3.34a.65.65,0,0,1,.24.45.67.67,0,0,1-.15.49.74.74,0,0,1-.45.24.66.66,0,0,1-.49-.16L8,7.53,4.44,10.41a1,1,0,0,1-.23.12.74.74,0,0,1-.26,0,.57.57,0,0,1-.25-.08.62.62,0,0,1-.2-.16.56.56,0,0,1-.13-.24.63.63,0,0,1,0-.27.5.5,0,0,1,.08-.26.68.68,0,0,1,.17-.21l4-3.22A.72.72,0,0,1,8,6Z" transform="translate(-3.33 -6)"/></svg>