<svg id="Слой_1" data-name="Слой 1" xmlns="http://www.w3.org/2000/svg" viewBox="0 0 32.28 32.28"><defs><style>.cls-1{fill:#0072db;}.cls-2{fill:none;stroke:#fff;stroke-miterlimit:10;stroke-width:0.28px;}</style></defs><path class="cls-1" d="M22.6,10A1.41,1.41,0,0,1,23,9.71a1.07,1.07,0,0,1,.86,0,1.21,1.21,0,0,1,.35.24,1.14,1.14,0,0,1,0,1.58L15.32,22a1,1,0,0,1-.79.36,1,1,0,0,1-.44-.08,1,1,0,0,1-.37-.25L8.33,16.58a1.15,1.15,0,0,1-.33-.8A1.11,1.11,0,0,1,8.33,15a1,1,0,0,1,.36-.25,1.16,1.16,0,0,1,.42-.08,1.26,1.26,0,0,1,.43.08A1.23,1.23,0,0,1,9.9,15l4.57,4.64L22.57,10Z" transform="translate(0.14 0.14)"/><rect class="cls-2" x="0.14" y="0.14" width="32" height="32"/></svg>