<svg width="20" height="20" viewBox="0 0 20 20" fill="none" xmlns="http://www.w3.org/2000/svg">
<path d="M1.25 4.375C1.25 3.87772 1.44754 3.40081 1.79917 3.04917C2.15081 2.69754 2.62772 2.5 3.125 2.5H11.875C12.3723 2.5 12.8492 2.69754 13.2008 3.04917C13.5525 3.40081 13.75 3.87772 13.75 4.375V10.625C13.75 11.1223 13.5525 11.5992 13.2008 11.9508C12.8492 12.3025 12.3723 12.5 11.875 12.5H3.125C2.62772 12.5 2.15081 12.3025 1.79917 11.9508C1.44754 11.5992 1.25 11.1223 1.25 10.625V4.375ZM3.125 3.75C2.95924 3.75 2.80027 3.81585 2.68306 3.93306C2.56585 4.05027 2.5 4.20924 2.5 4.375V10.625C2.5 10.7908 2.56585 10.9497 2.68306 11.0669C2.80027 11.1842 2.95924 11.25 3.125 11.25H11.875C12.0408 11.25 12.1997 11.1842 12.3169 11.0669C12.4342 10.9497 12.5 10.7908 12.5 10.625V4.375C12.5 4.20924 12.4342 4.05027 12.3169 3.93306C12.1997 3.81585 12.0408 3.75 11.875 3.75H3.125ZM6.35625 16.25C6.48555 16.6157 6.7251 16.9323 7.04189 17.1562C7.35867 17.3801 7.73709 17.5002 8.125 17.5H11.875C12.7778 17.5 13.6718 17.3222 14.5059 16.9767C15.3401 16.6312 16.098 16.1248 16.7364 15.4864C17.3748 14.848 17.8812 14.0901 18.2267 13.2559C18.5722 12.4218 18.75 11.5278 18.75 10.625V9.375C18.7502 8.98709 18.6301 8.60867 18.4062 8.29189C18.1823 7.9751 17.8657 7.73555 17.5 7.60625V10.625C17.5 12.1168 16.9074 13.5476 15.8525 14.6025C14.7976 15.6574 13.3668 16.25 11.875 16.25H6.35625ZM5.625 15C5.23709 15.0002 4.85867 14.8801 4.54189 14.6562C4.2251 14.4323 3.98555 14.1157 3.85625 13.75H11.875C12.2854 13.75 12.6917 13.6692 13.0709 13.5121C13.45 13.3551 13.7945 13.1249 14.0847 12.8347C14.3749 12.5445 14.6051 12.2 14.7621 11.8209C14.9192 11.4417 15 11.0354 15 10.625V5.10625C15.3657 5.23555 15.6823 5.4751 15.9062 5.79189C16.1301 6.10867 16.2502 6.48709 16.25 6.875V10.625C16.25 11.7853 15.7891 12.8981 14.9686 13.7186C14.1481 14.5391 13.0353 15 11.875 15H5.625Z" fill="#222222"/>
</svg>
