<svg width="12" height="10" viewBox="0 0 12 10" fill="none" xmlns="http://www.w3.org/2000/svg">
<path d="M10.8164 2.32343C10.6593 1.95972 10.4328 1.63014 10.1496 1.35312C9.86617 1.07527 9.53199 0.854474 9.16523 0.702727C8.78493 0.544751 8.37704 0.463889 7.96523 0.464837C7.3875 0.464837 6.82383 0.62304 6.33398 0.921868C6.2168 0.993352 6.10547 1.07187 6 1.15741C5.89453 1.07187 5.7832 0.993352 5.66602 0.921868C5.17617 0.62304 4.6125 0.464837 4.03477 0.464837C3.61875 0.464837 3.21562 0.544524 2.83477 0.702727C2.4668 0.855071 2.13516 1.07421 1.85039 1.35312C1.56679 1.62982 1.34025 1.95949 1.18359 2.32343C1.0207 2.70195 0.9375 3.1039 0.9375 3.51757C0.9375 3.90781 1.01719 4.31445 1.17539 4.72812C1.30781 5.07382 1.49766 5.43242 1.74023 5.79452C2.12461 6.36757 2.65312 6.96523 3.30937 7.57109C4.39687 8.57539 5.47383 9.26913 5.51953 9.29726L5.79727 9.47538C5.92031 9.5539 6.07852 9.5539 6.20156 9.47538L6.4793 9.29726C6.525 9.26796 7.60078 8.57539 8.68945 7.57109C9.3457 6.96523 9.87422 6.36757 10.2586 5.79452C10.5012 5.43242 10.6922 5.07382 10.8234 4.72812C10.9816 4.31445 11.0613 3.90781 11.0613 3.51757C11.0625 3.1039 10.9793 2.70195 10.8164 2.32343ZM6 8.54843C6 8.54843 1.82812 5.87538 1.82812 3.51757C1.82812 2.32343 2.81602 1.35546 4.03477 1.35546C4.89141 1.35546 5.63438 1.83359 6 2.53202C6.36562 1.83359 7.10859 1.35546 7.96523 1.35546C9.18398 1.35546 10.1719 2.32343 10.1719 3.51757C10.1719 5.87538 6 8.54843 6 8.54843Z" fill="#222222"/>
</svg>
