<svg width="16" height="14" viewBox="0 0 16 14" fill="none" xmlns="http://www.w3.org/2000/svg">
<path d="M14.7889 6.89063L8.75143 0.856259L8.34674 0.451571C8.25454 0.359972 8.12984 0.308563 7.99987 0.308563C7.8699 0.308563 7.7452 0.359972 7.65299 0.451571L1.21081 6.89063C1.11632 6.98475 1.04165 7.09684 0.991201 7.22028C0.940749 7.34373 0.915538 7.47603 0.917057 7.60938C0.923307 8.15938 1.38112 8.59845 1.93112 8.59845H2.59518V13.6875H13.4046V8.59845H14.0827C14.3499 8.59845 14.6014 8.49376 14.7905 8.3047C14.8836 8.2119 14.9573 8.10156 15.0075 7.98006C15.0577 7.85857 15.0832 7.72833 15.0827 7.59688C15.0827 7.33126 14.978 7.0797 14.7889 6.89063ZM8.87487 12.5625H7.12487V9.37501H8.87487V12.5625ZM12.2796 7.47345V12.5625H9.87487V9.00001C9.87487 8.6547 9.59518 8.37501 9.24987 8.37501H6.74987C6.40456 8.37501 6.12487 8.6547 6.12487 9.00001V12.5625H3.72018V7.47345H2.22018L8.00143 1.69688L8.36237 2.05782L13.7811 7.47345H12.2796Z" fill="#222222"/>
</svg>
