<svg id="Слой_1" data-name="Слой 1" xmlns="http://www.w3.org/2000/svg" viewBox="0 0 18.23 18.23"><defs><style>.cls-1{fill:#222;}</style></defs><path class="cls-1" d="M15.93,1a3,3,0,0,0-1.18.24,2.84,2.84,0,0,0-1,.67L1.89,13.75l0,.23L1,18.11l-.23,1.1L1.89,19,6,18.16l.23-.05L18.11,6.25a3,3,0,0,0,.68-1,3.14,3.14,0,0,0,0-2.36,3,3,0,0,0-.68-1,2.93,2.93,0,0,0-1-.67A3,3,0,0,0,15.93,1Zm0,1.43A1.56,1.56,0,0,1,17.05,3a1.43,1.43,0,0,1,0,2.25l-.53.51L14.29,3.48,14.8,3A1.6,1.6,0,0,1,15.93,2.41Zm-2.7,2.13,2.23,2.23L6.39,15.84a5.11,5.11,0,0,0-2.23-2.23ZM3.2,14.83a3.49,3.49,0,0,1,2,2l-2.46.49Z" transform="translate(-0.79 -0.98)"/></svg>