<svg id="Слой_1" data-name="Слой 1" xmlns="http://www.w3.org/2000/svg" viewBox="0 0 12 13.07"><defs><style>.cls-1{fill:#222;}</style></defs><path class="cls-1" d="M10,9.53A2,2,0,0,0,8.74,10L5.29,7.48a2.58,2.58,0,0,0,0-1L8.74,4A2,2,0,1,0,8,2.47,2,2,0,0,0,8.08,3L4.8,5.4a2.67,2.67,0,1,0,0,3.2L8.08,11a2,2,0,0,0-.08.55,2,2,0,1,0,2-2ZM10,1.6a.87.87,0,1,1-.87.87A.87.87,0,0,1,10,1.6ZM2.67,8.47A1.47,1.47,0,1,1,4.13,7,1.47,1.47,0,0,1,2.67,8.47ZM10,12.4a.87.87,0,1,1,.87-.87A.87.87,0,0,1,10,12.4Z" transform="translate(0 -0.47)"/></svg>