<svg width="18" height="22" viewBox="0 0 18 22" fill="none" xmlns="http://www.w3.org/2000/svg">
<path d="M15.7598 20H11.1285C11.9089 19.3031 12.6447 18.5579 13.3316 17.7687C15.9004 14.8156 17.2598 11.6938 17.2598 8.75C17.2598 6.56196 16.3906 4.46354 14.8434 2.91637C13.2962 1.36919 11.1978 0.5 9.00977 0.5C6.82173 0.5 4.72331 1.36919 3.17613 2.91637C1.62896 4.46354 0.759766 6.56196 0.759766 8.75C0.759766 11.6938 2.11914 14.8156 4.69727 17.7687C5.38174 18.5602 6.11772 19.3055 6.90039 20H2.25977C2.06085 20 1.87009 20.079 1.72944 20.2197C1.58878 20.3603 1.50977 20.5511 1.50977 20.75C1.50977 20.9489 1.58878 21.1397 1.72944 21.2803C1.87009 21.421 2.06085 21.5 2.25977 21.5H15.7598C15.9587 21.5 16.1494 21.421 16.2901 21.2803C16.4307 21.1397 16.5098 20.9489 16.5098 20.75C16.5098 20.5511 16.4307 20.3603 16.2901 20.2197C16.1494 20.079 15.9587 20 15.7598 20ZM2.25977 8.75C2.25977 6.95979 2.97092 5.2429 4.23679 3.97703C5.50267 2.71116 7.21955 2 9.00977 2C10.8 2 12.5169 2.71116 13.7827 3.97703C15.0486 5.2429 15.7598 6.95979 15.7598 8.75C15.7598 14.1125 10.5566 18.5938 9.00977 19.8125C7.46289 18.5938 2.25977 14.1125 2.25977 8.75ZM12.7598 8.75C12.7598 8.00832 12.5398 7.2833 12.1278 6.66661C11.7157 6.04993 11.1301 5.56928 10.4448 5.28545C9.75961 5.00162 9.00561 4.92736 8.27818 5.07205C7.55075 5.21675 6.88256 5.5739 6.35812 6.09835C5.83367 6.6228 5.47652 7.29098 5.33182 8.01841C5.18713 8.74584 5.26139 9.49984 5.54522 10.1851C5.82905 10.8703 6.30969 11.456 6.92638 11.868C7.54306 12.2801 8.26809 12.5 9.00977 12.5C10.0043 12.5 10.9582 12.1049 11.6614 11.4017C12.3647 10.6984 12.7598 9.74456 12.7598 8.75ZM6.75977 8.75C6.75977 8.30499 6.89173 7.86998 7.13896 7.49997C7.38619 7.12996 7.73759 6.84157 8.14873 6.67127C8.55986 6.50097 9.01226 6.45642 9.44872 6.54323C9.88518 6.63005 10.2861 6.84434 10.6008 7.15901C10.9154 7.47368 11.1297 7.87459 11.2165 8.31105C11.3033 8.7475 11.2588 9.1999 11.0885 9.61104C10.9182 10.0222 10.6298 10.3736 10.2598 10.6208C9.88979 10.868 9.45477 11 9.00977 11C8.41379 10.9975 7.84293 10.7597 7.4215 10.3383C7.00008 9.91684 6.76223 9.34598 6.75977 8.75Z" fill="white"/>
</svg>
