<svg id="Слой_1" data-name="Слой 1" xmlns="http://www.w3.org/2000/svg" viewBox="0 0 20.44 18.07"><defs><style>.cls-1{fill:#575757;}</style></defs><path class="cls-1" d="M21.08,9.4a14.15,14.15,0,0,0-2.94-4.25L17,6.34A12.61,12.61,0,0,1,19.5,10C17.55,14,14.78,16,11,16a9.07,9.07,0,0,1-3.14-.52L6.57,16.72a10.48,10.48,0,0,0,4.43.92c4.5,0,7.87-2.35,10.08-7a1.39,1.39,0,0,0,.14-.6,1.36,1.36,0,0,0-.14-.6ZM19.59,1.88l-1-1a.09.09,0,0,0-.06,0h-.14l-.06,0L15.77,3.44A10.4,10.4,0,0,0,11,2.36c-4.5,0-7.87,2.35-10.08,7a1.39,1.39,0,0,0-.14.6,1.36,1.36,0,0,0,.14.6,13.86,13.86,0,0,0,3.2,4.49L1.64,17.57a.18.18,0,0,0-.06.13.2.2,0,0,0,.06.14l1,1a.19.19,0,0,0,.26,0L19.59,2.15a.16.16,0,0,0,0-.07.14.14,0,0,0,0-.07.19.19,0,0,0,0-.07A.21.21,0,0,0,19.59,1.88ZM2.5,10c2-4,4.72-5.95,8.5-5.95a8.93,8.93,0,0,1,3.49.66L12.85,6.36a4.12,4.12,0,0,0-5.58,5.58l-2,2A12.29,12.29,0,0,1,2.5,10Zm5.78,0a2.61,2.61,0,0,1,.29-1.19,2.54,2.54,0,0,1,.79-.93,2.7,2.7,0,0,1,1.13-.47,2.53,2.53,0,0,1,1.22.09l-3.3,3.3a2.44,2.44,0,0,1-.13-.8Z" transform="translate(-0.78 -0.83)"/><path class="cls-1" d="M10.89,12.56h-.24L9.41,13.79a4.12,4.12,0,0,0,5.33-5.33L13.51,9.7c0,.08,0,.16,0,.24a2.66,2.66,0,0,1-.2,1,2.59,2.59,0,0,1-.57.85,2.65,2.65,0,0,1-.85.57A2.67,2.67,0,0,1,10.89,12.56Z" transform="translate(-0.78 -0.83)"/></svg>