<svg width="48" height="48" viewBox="0 0 48 48" fill="none" xmlns="http://www.w3.org/2000/svg">
<path d="M46.7997 45.5999H43.1997V26.4H45.5997C46.5701 26.4 47.4453 25.8152 47.8173 24.9184C48.1884 24.0216 47.9837 22.9896 47.2973 22.3024L25.6974 0.702554C25.2286 0.234557 24.6143 0.000183105 23.9999 0.000183105C23.3854 0.000183105 22.7711 0.234557 22.3031 0.703398L15.5999 7.40573V4.80015C15.5999 3.47454 14.5255 2.40017 13.1999 2.40017H10.7999C9.47432 2.40017 8.39995 3.47454 8.39995 4.80015V14.6057L0.703215 22.3024C0.0167811 22.9889 -0.188811 24.0208 0.183186 24.9184C0.554341 25.8152 1.42959 26.4 2.39999 26.4H4.79997V45.5999H1.19999C0.536809 45.5999 0 46.1367 0 46.7999C0 47.4631 0.536809 47.9999 1.19999 47.9999H46.7997C47.4629 47.9999 47.9997 47.4631 47.9997 46.7999C47.9997 46.1367 47.4629 45.5999 46.7997 45.5999ZM10.7999 4.80015H13.1999V9.80572L10.7999 12.2057V4.80015ZM40.7998 45.5999H7.19996V24H2.39999L23.9999 2.40017L45.5997 24H40.7998V45.5999Z" fill="#222222"/>
<path d="M18.416 40C18.2026 40 18.0213 39.936 17.872 39.808C17.744 39.6586 17.68 39.4773 17.68 39.264V35.168H15.216C15.0026 35.168 14.8213 35.104 14.672 34.976C14.544 34.8266 14.48 34.6453 14.48 34.432V33.696C14.48 33.4826 14.544 33.312 14.672 33.184C14.8213 33.0346 15.0026 32.96 15.216 32.96H17.68V31.136H15.216C15.0026 31.136 14.8213 31.072 14.672 30.944C14.544 30.7946 14.48 30.6133 14.48 30.4V29.312C14.48 29.0986 14.544 28.928 14.672 28.8C14.8213 28.6506 15.0026 28.576 15.216 28.576H17.68V18.368C17.68 18.1333 17.744 17.952 17.872 17.824C18.0213 17.6746 18.2026 17.6 18.416 17.6H26.544C28.1226 17.6 29.488 17.856 30.64 18.368C31.8133 18.88 32.72 19.648 33.36 20.672C34 21.6746 34.32 22.9333 34.32 24.448C34.32 25.9413 34 27.1786 33.36 28.16C32.72 29.1413 31.8133 29.888 30.64 30.4C29.488 30.8906 28.1226 31.136 26.544 31.136H20.88V32.96H27.056C27.2693 32.96 27.44 33.0346 27.568 33.184C27.7173 33.312 27.792 33.4826 27.792 33.696V34.432C27.792 34.6453 27.7173 34.8266 27.568 34.976C27.44 35.104 27.2693 35.168 27.056 35.168H20.88V39.264C20.88 39.4773 20.8053 39.6586 20.656 39.808C20.528 39.936 20.3466 40 20.112 40H18.416ZM20.848 28.576H26.384C27.9626 28.576 29.1466 28.224 29.936 27.52C30.7253 26.816 31.12 25.792 31.12 24.448C31.12 23.1253 30.736 22.1013 29.968 21.376C29.2 20.6506 28.0053 20.288 26.384 20.288H20.848V28.576Z" fill="#222222"/>
</svg>
