<svg width="48" height="48" viewBox="0 0 48 48" fill="none" xmlns="http://www.w3.org/2000/svg">
<path d="M46.7997 45.5999H43.1997V26.4H45.5997C46.5701 26.4 47.4453 25.8152 47.8173 24.9184C48.1884 24.0216 47.9837 22.9896 47.2973 22.3024L25.6974 0.702554C25.2286 0.234557 24.6143 0.000183105 23.9999 0.000183105C23.3854 0.000183105 22.7711 0.234557 22.3031 0.703398L15.5999 7.40573V4.80015C15.5999 3.47454 14.5255 2.40017 13.1999 2.40017H10.7999C9.47432 2.40017 8.39995 3.47454 8.39995 4.80015V14.6057L0.703215 22.3024C0.0167811 22.9889 -0.188811 24.0208 0.183186 24.9184C0.554341 25.8152 1.42959 26.4 2.39999 26.4H4.79997V45.5999H1.19999C0.536809 45.5999 0 46.1367 0 46.7999C0 47.4631 0.536809 47.9999 1.19999 47.9999H46.7997C47.4629 47.9999 47.9997 47.4631 47.9997 46.7999C47.9997 46.1367 47.4629 45.5999 46.7997 45.5999ZM10.7999 4.80015H13.1999V9.80572L10.7999 12.2057V4.80015ZM27.5998 45.5999H20.3999V28.8H27.5998V45.5999ZM40.7998 45.5999H29.9998V28.8C29.9998 27.4744 28.9255 26.4 27.5998 26.4H20.3999C19.0743 26.4 17.9999 27.4744 17.9999 28.8V45.5999H7.19996V24H2.39999L23.9999 2.40017L45.5997 24H40.7998V45.5999Z" fill="#222222"/>
</svg>
