<svg width="48" height="48" viewBox="0 0 48 48" fill="none" xmlns="http://www.w3.org/2000/svg">
<g clip-path="url(#clip0_114_1371)">
<path d="M28.9064 5.91199C25.6007 5.91199 22.9111 8.6072 22.9111 11.9176C22.9111 15.2288 25.6007 17.9232 28.9064 17.9232C32.212 17.9232 34.9023 15.2289 34.9023 11.9176C34.9023 8.6072 32.212 5.91199 28.9064 5.91199ZM28.9064 15.5864C26.8879 15.5864 25.2455 13.9416 25.2455 11.9185C25.2455 9.89524 26.8879 8.25049 28.9064 8.25049C30.9248 8.25049 32.5672 9.89533 32.5672 11.9185C32.5671 13.9416 30.9248 15.5864 28.9064 15.5864Z" fill="#222222"/>
<path d="M37.3216 3.49041C35.0728 1.23919 32.084 0 28.9064 0C25.7289 0 22.7416 1.23919 20.492 3.49041C15.8544 8.13759 15.8544 15.6976 20.4952 20.3472C20.5952 20.4457 28.5696 28.42 28.5696 28.42L28.9064 28.756L29.2433 28.42C29.2433 28.42 37.2192 20.4457 37.3217 20.3449C41.9592 15.6968 41.9592 8.13759 37.3216 3.49041ZM35.668 18.6936C35.6241 18.7375 34.3752 19.9887 32.8729 21.4887L28.9073 25.4575L24.304 20.852C23.1009 19.6504 22.1841 18.7336 22.1449 18.6911C18.4144 14.9552 18.4144 8.88 22.144 5.14481C23.9481 3.33441 26.3497 2.33841 28.9064 2.33841C31.4632 2.33841 33.8656 3.33441 35.6704 5.14481C39.4 8.88 39.4 14.956 35.668 18.6936Z" fill="#222222"/>
<path d="M43.2 9.59998V12H45.6V27.3968L39.6 23.1176L31.24 34.84L45.6 45.0824V45.6H42.356L2.4 17.1008V12H14.4V9.59998H0V48H48V9.59998H43.2ZM2.4 34.7871L5.70956 37.1487L2.4 41.7872V34.7871ZM11.4728 45.6L13.5257 42.7232L17.5584 45.6H11.4728ZM21.6904 45.6L12.9632 39.376L8.52478 45.6H2.62959L9.05681 36.588L2.4 31.84V28.8912L25.8256 45.6H21.6904ZM29.9576 45.6L2.4 25.944V20.0479L38.2232 45.6H29.9576ZM45.6 42.136L34.5864 34.28L40.1624 26.4649L45.6 30.3425V42.136Z" fill="#222222"/>
</g>
<defs>
<clipPath id="clip0_114_1371">
<rect width="48" height="48" fill="white"/>
</clipPath>
</defs>
</svg>
