<svg width="18" height="18" viewBox="0 0 18 18" fill="none" xmlns="http://www.w3.org/2000/svg">
<path d="M14.9375 1.5H3.0625C2.48285 1.50165 1.9274 1.73265 1.51753 2.14253C1.10765 2.5524 0.876649 3.10785 0.875 3.6875V11.1875C0.876649 11.7672 1.10765 12.3226 1.51753 12.7325C1.9274 13.1424 2.48285 13.3734 3.0625 13.375H4.625V16.5L8.28594 13.4477C8.34216 13.4007 8.41308 13.375 8.48633 13.375H14.9375C15.5172 13.3734 16.0726 13.1424 16.4825 12.7325C16.8924 12.3226 17.1234 11.7672 17.125 11.1875V3.6875C17.1234 3.10785 16.8924 2.5524 16.4825 2.14253C16.0726 1.73265 15.5172 1.50165 14.9375 1.5V1.5Z" stroke="#222222" stroke-width="1.5" stroke-linejoin="round"/>
</svg>
